<svg fill="none" height="160" viewBox="0 0 160 160" width="160" xmlns="http://www.w3.org/2000/svg" xmlns:xlink="http://www.w3.org/1999/xlink"><clipPath id="a"><path d="m0 0h160v160h-160z"/></clipPath><g clip-path="url(#a)"><path d="m0 0h160v160h-160z" fill="#fff"/><path d="m0 0h160v160h-160z" fill="#30392d"/><path d="m105.156 105.015v-44.9589c0-14.3665-8.7423-21.1273-22.8648-21.1273-8.7418 0-17.3162 2.5353-24.3773 7.0988-7.0611 4.3945-12.7772 10.9862-13.4497 19.268h17.8209v-16.0567c2.858-.676 6.2205-1.1831 9.9193-1.1831 10.0868 0 15.1306 4.2254 15.1306 12.5074v11.1549c-8.2381 2.0288-16.6438 4.5638-25.0499 8.4513-10.9279 5.0706-17.4846 11.3243-17.4846 21.1266 0 11.663 8.2379 19.776 20.1745 19.776 10.7594 0 17.9888-5.916 23.3688-12.676 1.5131 6.084 6.3887 11.323 14.4582 11.323h12.777v-14.704zm-31.1023 4.226c-7.0612 0-11.6006-4.395-11.6006-12.5079 0-6.085 2.5219-9.6344 8.07-12.5075 5.2113-2.7044 10.5913-4.5631 16.8119-6.2537v26.5361c-3.5306 2.873-7.9019 4.733-13.2813 4.733z" fill="#f0ecea"/></g></svg>