<svg fill="none" height="160" viewBox="0 0 160 160" width="160" xmlns="http://www.w3.org/2000/svg" xmlns:xlink="http://www.w3.org/1999/xlink"><clipPath id="a"><path d="m30 32h100v96h-100z"/></clipPath><path d="m0 0h160v160h-160z" fill="#000"/><g clip-path="url(#a)"><path d="m30.5375 112.808 61.25-36.544h31.7705c.979 0 1.854.752 1.854 1.78 0 .84-.383 1.22-.875 1.5l-30.0912 17.292c-1.9583 1.132-2.6375 3.38-2.6375 5.06l-.0333 10.9h38.225v-63.348c.001-.3033-.062-.6036-.186-.8827-.123-.2792-.304-.5315-.532-.7416s-.498-.3737-.793-.4809c-.296-.1072-.611-.1558-.926-.1428h-36.4672l-61.0958 36.372v29.228h.5375z" fill="#fff"/></g></svg>