<svg fill="none" height="160" viewBox="0 0 160 160" width="160" xmlns="http://www.w3.org/2000/svg"><path d="m0 0h160v160h-160z" fill="#e6d9cc"/><path d="m74.3775 57.5167v-5.6444h-5.6234v5.6444h-5.6216-5.6215v5.6215 5.6235 5.6234 5.6178h5.6215v-5.6178-5.6234-5.6235h5.6216 5.6234 5.6216v-5.6215z" fill="#ff7040"/><g fill="#ff4046"><path d="m68.7541 40.6215v5.6216h-5.6216v5.6292h-5.6215v5.6444h5.6215 5.6216v-5.6444h5.6234v-5.6292-5.6216z"/><path d="m79.9983 35h-5.6207v5.6207h5.6207z"/><path d="m96.8592 51.8723h-5.6188v5.6417h5.6188z"/><path d="m91.2375 46.2431h-5.6169v5.6283h5.6169z"/></g><path d="m96.8599 63.1382v-5.6215h-5.6197-5.6196v5.6215h5.6196v5.6235h5.6197v5.6234 5.6178h5.6231v-5.6178-5.6234-5.6235z" fill="#ff7040"/><path d="m91.2404 68.7617v-5.6234h-5.6196-5.6216-5.6215-5.6235-5.6215v5.6234 5.6234 5.6178 5.6234h5.6215v-5.6234-5.6178-5.6234h5.6235 5.6215 5.6216v5.6234h5.6196v5.6178 5.6234h5.6197v-5.6234-5.6178-5.6234z" fill="#ffae40"/><path d="m85.6207 74.3851v-5.6234h-5.6215-5.6216-5.6234v5.6234 5.6178 5.6234 5.6235h5.6234 5.6216 5.6215 5.6177v-5.6235-5.6234-5.6178zm0 11.2412h-5.6215-5.6216v-5.6234-5.6178h5.6216v5.6178h5.6215z" fill="#ffee40"/><path d="m79.9991 80.0029v-5.6178h-5.6215v5.6178 5.6234h5.6215 5.6216v-5.6234z" fill="#fff"/><path d="m125 99.6802c0 4.6648-3.775 8.4528-8.434 8.4528-4.658 0-8.444-3.786-8.444-8.4528 0-4.6573 3.785-8.4304 8.444-8.4304 4.661.0019 8.434 3.7731 8.434 8.4304z" fill="#806d60"/><path d="m114.379 124.729 4.534-16.269-73.2943-16.9276-.0039.0057c-.7026-.168-1.413-.2883-2.1844-.2883-4.6611 0-8.2337 3.7712-8.2337 8.4304 0 3.8518 2.8928 7.1028 6.2784 8.1188l-.0344.027c.2234.069.3323.132.5614.151z" fill="#a58d7c"/><path d="m41.0798 108.462 73.3002-16.9277 4.41 16.3027-73.1713 16.892z" fill="#806d60"/><path d="m51.8704 116.583c0 4.655-3.7789 8.43-8.44 8.43s-8.4304-3.775-8.4304-8.43c0-4.665 3.7693-8.45 8.4304-8.45s8.44 3.783 8.44 8.45z" fill="#a58d7c"/><path d="m125 116.583c0 4.655-3.775 8.43-8.434 8.43-4.658 0-8.444-3.775-8.444-8.43 0-4.665 3.785-8.45 8.444-8.45 4.661 0 8.434 3.783 8.434 8.45z" fill="#806d60"/></svg>