<svg fill="none" height="160" viewBox="0 0 160 160" width="160" xmlns="http://www.w3.org/2000/svg" xmlns:xlink="http://www.w3.org/1999/xlink"><linearGradient id="a" gradientUnits="userSpaceOnUse" x1="46.0148" x2="128.643" y1="77.9267" y2="82.0844"><stop offset="0" stop-color="#0064e1"/><stop offset=".4" stop-color="#0064e1"/><stop offset=".83" stop-color="#0073ee"/><stop offset="1" stop-color="#0082fb"/></linearGradient><linearGradient id="b" gradientUnits="userSpaceOnUse" x1="37.2847" x2="37.2847" y1="98.2199" y2="67.644"><stop offset="0" stop-color="#0082fb"/><stop offset="1" stop-color="#0064e0"/></linearGradient><clipPath id="c"><path d="m20 40h120v80h-120z"/></clipPath><path d="m0 0h160v160h-160z" fill="#fff"/><g clip-path="url(#c)"><path d="m32.9615 92.7749c0 4.6073 1.0057 8.1301 2.3202 10.2661.7005 1.216 1.7092 2.224 2.9237 2.922 1.2145.699 2.5915 1.062 3.991 1.053 3.3802 0 6.4724-.838 12.4315-9.1144 4.774-6.6304 10.3992-15.9163 14.1883-21.7801l6.4098-9.8849c4.4527-6.8649 9.598-14.4963 15.5154-19.6858 4.8199-4.2053 10.0236-6.5508 15.2606-6.5508 8.793 0 17.168 5.1141 23.578 14.7058 7.015 10.5047 10.433 23.7361 10.433 37.3905 0 8.1177-1.595 14.0817-4.307 18.7937-2.617 4.557-7.741 9.11-16.333 9.11v-12.984c7.357 0 9.18-6.786 9.18-14.5511 0-11.0659-2.57-23.3466-8.233-32.1214-4.019-6.2241-9.227-10.0273-14.956-10.0273-6.1972 0-11.184 4.6911-16.7884 13.0555-2.9795 4.444-6.0384 9.8597-9.4728 15.9707l-3.7808 6.7016c-7.5949 13.5162-9.5187 16.595-13.3162 21.675-6.6434 8.93-12.3271 12.281-19.8094 12.281-8.8761 0-14.4888-3.858-17.9441-9.671-2.8585-4.737-4.2523-10.9531-4.2523-18.0358z" fill="#0081fb"/><path d="m30.2198 55.623c5.9424-9.1937 14.518-15.623 24.3539-15.623 5.6962 0 11.359 1.6754 17.2722 6.5382 6.4682 5.2984 13.3537 14.0231 21.9627 28.4021l3.0839 5.1602c7.4445 12.4482 11.6845 18.8482 14.1595 21.8725 3.188 3.878 5.425 5.026 8.321 5.026 7.357 0 9.18-6.785 9.18-14.5508l11.434-.3602c0 8.117-1.594 14.082-4.306 18.794-2.592 4.565-7.716 9.118-16.308 9.118-5.342 0-10.074-1.164-15.307-6.119-4.023-3.804-8.7259-10.56-12.3439-16.6328l-10.7623-18.044c-5.3999-9.0555-10.3533-15.8073-13.2202-18.8482-3.088-3.3047-7.0483-7.2754-13.3746-7.2754-5.1203 0-9.4686 3.6063-13.1075 9.1225z" fill="url(#a)"/><path d="m54.365 53.0806c-5.1203 0-9.4686 3.6063-13.1075 9.1225-5.1454 7.7948-8.296 19.4053-8.296 30.5718 0 4.6073 1.0057 8.1301 2.3202 10.2661l-11.0502 7.288c-2.8377-4.737-4.2315-10.9531-4.2315-18.0358 0-12.8796 3.522-26.3037 10.2198-36.6702 5.9424-9.1937 14.518-15.623 24.3539-15.623z" fill="url(#b)"/></g></svg>