<svg fill="none" height="160" viewBox="0 0 160 160" width="160" xmlns="http://www.w3.org/2000/svg"><path d="m0 0h160v160h-160z" fill="#d74034"/><path d="m139.942 69.6865c-.136-.3236-.492-.5281-1.154-.6473-.305-.0511-.61-.0511-.916-.0511h-.288l-4.936-.0341c-5.53-.0341-11.246-.0681-16.877-.1193-.628 0-1.205-.1362-1.646-.3577-2.9-1.4651-5.75-2.9642-8.498-4.4463-.339-.1874-.678-.5963-.814-.9711-.746-2.2487-1.493-4.6337-2.426-7.7683-.254-.8347-.712-1.2436-1.577-1.3969l-.238-.0341c-3.0529-.5281-6.2079-1.0733-9.295-1.7376-1.6114-.3408-2.7309-.0341-3.7317 1.0391-.7463.8007-5.2752 5.0426-6.9036 5.6389-1.5605.5622-5.3262.1533-5.6145.1363-.475-.1023-1.34-.3408-1.6454-.5622-2.1372-1.6014-4.2914-3.2539-6.3778-4.8722l-2.239-1.7377c-.7294-.5622-1.0856-.8348-1.5266-.7496-.458.1022-.6785.5111-1.1365 1.3459l-1.2212 2.2487c-1.4758 2.7257-3.0193 5.5366-4.495 8.3134-.2545.4941-.492.6133-.9839.5452-1.5944-.2215-3.2228-.3918-4.8003-.5622l-.2544-.0341c-.475-.0511-.9499-.1192-1.4248-.1703-2.4596-.3067-5.0039-.6133-7.5822.0511-.9159.2385-1.8997.3748-2.8496.5111-.4411.0681-.899.1192-1.3401.2044l-4.0709.6644c-3.8165.6133-7.7517 1.2606-11.6361 1.908-.5767.1022-1.2043.2385-1.3909.7325-.1696.443.0848.92.5767 1.5503.458.5962.9329 1.1925 1.4079 1.7717 1.1195 1.431 2.2899 2.8961 3.3924 4.3782.1866.2555.2884.8007.2036 1.1244-.3223 1.2095-.7464 2.5383-1.34 4.1567-.3054.8177-.1866 1.4651.424 2.1635 1.3909 1.6014 2.5952 3.0835 3.6978 4.5486.1696.2214.2544.7325.1696 1.0392-.4241 1.5673-.899 3.1516-1.34 4.6848-.2884.9881-.5937 2.0102-.8821 3.0324l-.0169.034c-.1357.4941-.3393 1.1925.0509 1.5673.3223.3067.882.2726 1.7132-.0851 2.7309-1.1926 5.4788-2.4191 8.1588-3.6116.8651-.3919 1.7302-.7666 2.5952-1.1585 2.1542-.954 4.3254-1.925 6.5305-2.8961l2.239-.988.5259 1.1243c.7463 1.5844 1.4587 3.0835 2.1542 4.5997.0848.1704.1017.4089.0848.6474-.4071 3.4582-.8481 7.0524-1.2892 10.6814-.0848.698-.1357 1.312.2714 1.635.3902.324.9838.137 1.6623-.102l2.731-1.005c4.4441-1.635 9.0408-3.339 13.5528-5.042.8142-.307 1.34-.256 1.9846.221 2.9514 2.129 6.0046 4.225 8.9391 6.252l.6106.426c.3563.239.8312.307 1.1704.307l1.6623.017c5.5806.068 11.3308.136 17.0132.153.7803 0 1.6795-.307 2.2895-.801 6.175-4.838 12.4-9.7953 18.438-14.5823l1.731-1.3629c.356-.2896.746-.5621 1.119-.8518.967-.7155 1.968-1.465 2.765-2.385 3.969-4.5485 7.938-9.2334 11.772-13.7819.899-1.0733 1.815-2.1465 2.714-3.2198.084-.1192.644-.8007.407-1.3288zm-81.5548-6.4736 5.3431-9.8466 8.1928 6.3032zm-.5258 2.1466c4.0031-1.0733 8.091-2.1295 12.0432-3.1687l1.1873-.3066-13.5528 12.2316v-5.5196c0-.8858 0-1.8057.0678-2.7086 0-.1704.1697-.46.2545-.5281zm78.8236 6.0647-11.924 14.0204v-11.7035zm-16.403-.5452h9.109c-1.764.3408-3.579.6815-5.377.9881-.373.0682-.831-.0852-1.289-.2214l-.17-.0512c-.729-.2214-1.492-.4599-2.273-.7155zm-14.078-4.3441.695.3748c2.07 1.0903 4.207 2.1976 6.293 3.322.051.0511.136.2214.136.2896-.254 2.6235-.56 5.2981-.848 7.8876zm16.029 21.3799-19.795 15.7072 11.026-20.6987zm-7.938-8.5349.899-8.109 6.547 2.0613zm8.328-4.3101v10.8518l-7.853-4.4804zm-42.1679 21.1414v-2.2828l16.1481 11.9936h-12.1789c-.4919 0-.9669 0-1.4588-.017-.4919 0-1.0008-.017-1.5096-.017h-.5259c-.2883 0-.3731-.052-.4071-.086-.0508-.051-.0678-.17-.0678-.34zm-2.0864-2.7257v11.2605l-7.8874-5.4342zm-2.0354-.8858-7.2938 5.4003-3.7317-5.7411zm-12.9762.1703 3.8165 5.8603-13.909 5.1617zm-32.8728-11.0051-.9669 2.9302-2.3747-2.9302zm8.7525 7.8535-10.7201 4.8382 3.596-11.6695zm3.3076-25.0767-10.7371 14.7701-9.1765-11.4992zm3.8674-.1533 8.7695 1.0222-2.9344 10.2385zm9.3632 13.9012 17.9461-16.201 5.1395 15.4685zm21.8304 1.2607-13.9429 10.4429-8.7356-9.7445zm-22.2036-3.782c-.0169.1874-.3731.5281-.6276.7496-.1187.1022-.2374.2214-.3392.3237-.2205.2385-.475.4599-.7124.6814l1.7471-6.1499c0 1.448 0 2.9301-.0679 4.3952zm-1.6792 8.3646c.0169-.6815.0678-1.3458.1357-2.1465v-.0511l4.8681 5.4173c-1.5774-.9029-3.2058-1.8398-4.7833-2.7938-.0848-.0511-.2205-.2896-.2205-.4259zm-18.8112-1.7547 14.4858 2.8109-.5428.2385c-2.3408 1.0392-4.7494 2.1295-7.1411 3.1516-.1866.0852-.5089.0852-.6106.0511-1.8659-1.8398-3.6809-3.7138-5.6146-5.6899-.2035-.1704-.3901-.3748-.5767-.5622zm17.1489-1.8569-.2714 3.1686-12.128-2.3509zm-18.2514-.7155 10.771-14.8041 7.0902 13.6286zm17.5898 6.5928-.4919 4.1057-1.5096-3.1857zm10.5845 5.0426-10.7202 11.6698 2.0694-16.6783zm13.4002-30.4088h4.5119l-.3731 12.4702zm3.3585 24.6337c-.0678.6985-.1357 1.3969-.2035 2.0784-.0848.8177-.1527 1.6184-.2205 2.4361-.0509.5622-.0849.5622-.3732.5451l-1.0347-.0341c-3.3585-.1192-6.8188-.2384-10.2961-.5281l12.569-9.4037-.0848.954c-.1187 1.3799-.2375 2.6746-.3562 3.9523zm9.5158-.0852-8.0231 4.4464.916-9.7615zm-6.8866-9.2504.4071-13.9693 7.0223 7.5638zm7.7008-4.1056v11.5843l-7.175-5.3663zm-6.7679-12.0954 6.3948-5.4004.441 12.7598zm8.7525 7.0698-.441-13.1686 8.8713 1.6524zm.7803 3.1687 10.5162-4.2249-4.1215 11.0392zm-.7124 13.2538v-11.2095l6.0555 6.4395zm.3901 3.1005c-.2884-.6303-.2544-.8347.2375-1.1925 1.5605-1.1584 3.0701-2.368 4.6646-3.6456.424-.3408.8651-.6815 1.2891-1.0222l.7463 21.244c-.6106-1.346-1.2212-2.692-1.8149-4.0379-1.6793-3.7138-3.4094-7.5638-5.1226-11.3458zm-1.9337.3237 7.6161 16.934-16.3177-12.1129zm22.0342-4.7359-11.195 21.0389-.8145-23.2366zm-11.7212-4.0886 4.2742-11.4651 7.158 13.5434zm-6.7849-10.6133 7.7861-10.6304c.084.2897.169.5622.271.8518.628 1.9762 1.204 3.8331 1.764 5.7241 0 .0681-.068.2385-.119.3066-3.0359 1.2436-6.2926 2.5554-9.7021 3.7479zm-63.3879 12.1124h-3.3925l.9499-2.9301z" fill="#fff"/></svg>