<svg fill="none" height="160" viewBox="0 0 160 160" width="160" xmlns="http://www.w3.org/2000/svg"><path d="m0 0h160v160h-160z" fill="#f6d33c"/><g clip-rule="evenodd" fill-rule="evenodd"><path d="m80.3683 120c22.1317 0 40.2487-17.94 40.2487-40.0718 0-22.1319-18.849-39.9155-40.2487-39.894-22.1306.0202-40.3683 17.7635-40.3683 39.894 0 22.1308 18.2377 40.0718 40.3683 40.0718z" fill="#fff"/><path d="m99.1288 54.5503c-5.1823.791-12.1298 1.2504-19.4047 1.2437.0943-7.9621.2277-13.7144.3827-15.4526 7.3679 1.2559 14.0687 6.5689 19.022 14.2089z" fill="#fff"/><path d="m107.777 83.1607c-7.503 1.144-17.556 1.8069-28.0863 1.7975-.0121-10.8483.0404-21.314.1347-29.4647 7.2695.0054 14.2116-.4527 19.3912-1.2423 5.0674 7.8206 8.3044 18.076 8.5604 28.9095z" fill="#c23c40"/><path d="m107.117 83.1068c-2.079-.3288-3.832-3.8025-2.913-7.3908-2.935 2.028-6.2377-2.1397-5.7553-5.9961.2546-2.0441 1.5953-3.8591 3.9293-3.0156-.913-3.1573-2.093-6.2311-3.5265-9.1883-2.2447.2793-4.4967.4963-6.7534.6509 2.1398 3.2352.0391 6.2454-2.9482 5.7657-2.1654-.3463-4.1865-2.6195-3.626-5.3238-1.7584 1.2195-5.375.7371-5.701-3.1247 6.6415-.0337 12.4841-.2574 19.4073-1.2356 5.5948 9.23 7.9988 17.3214 8.5738 28.8597-.206 0-.482.0323-.687-.0014zm-48.0961 27.0322c-4.134-.694-6.8828-1.583-7.8098-2.544-1.0214-1.149-2.3607-2.704-3.3067-3.915-2.2974-3.361-2.3418-3.426-3.3524-5.3578-1.7611-3.7243-1.7948-3.7944-2.4861-5.8641-1.1628-4.0221-1.1844-4.0989-1.5387-6.2858-.2445-2.1116-.4144-4.2311-.5094-6.3546l.0351-1.7369c-.0701 1.7005 4.0356 3.3134 11.138 4.5059-.0162.5646-.0243 1.1292-.0243 1.6978.0189 10.4616 2.9981 19.5165 7.8543 25.8545z" fill="#fff"/><path d="m80.2361 119.997c-.1873 0-.4352-.002-.6212-.005-.3692-.008-.737-.024-1.1049-.032-2.4187-.134-4.0019-.367-6.077-.746-5.22-1.193-9.8499-4.421-13.4408-9.143 3.5424.591 8.0995 1.041 13.3963 1.272 2.5049.109 5.0233.161 7.5053.164.093 5.366.2143 8.486.3423 8.49z" fill="#fff"/><path d="m79.8926 111.504c-2.482-.001-4.9991-.055-7.504-.164-5.2914-.229-9.8431-.679-13.3855-1.269-4.8118-6.333-7.7613-15.3572-7.7775-25.7757 0-.4555.0027-.9123.0148-1.3663 4.8252.8057 11.0262 1.4175 18.235 1.7314 3.4104.1482 6.8411.221 10.2218.2237l.0027 1.3663c.0148 10.4198.0876 19.2466.1927 25.2536z" fill="#c23c40"/><path d="m79.8308 112.057c-.3436 1.389-2.2894 2.715-5.0449 1.592 1.2868 1.698.1711 3.167-2.0926 2.755-1.7624-.32-3.851-1.736-4.0154-3.155-1.9852-.145-3.9655-.352-5.9382-.618 1.6816 1.952 3.5532 3.548 5.5798 4.732.2425-.1.6171-.075 1.8177.345 1.5347.538 2.9684 1.323 4.5018 1.869l-.0013.005c-1.2006-.184-1.3555-.207-2.2085-.372-2.8916-.831-8.2733-2.379-13.4381-9.142 6.2225.959 12.2793 1.374 20.9057 1.43-.0202.168-.0243.396-.066.559z" fill="#c23c40"/><path d="m58.9921 110.069c-5.5421-7.935-7.7222-15.5318-7.7802-27.0969 3.1315 1.0334 3.9925 5.6067 3.1881 8.179 2.9792-1.1494 6.7211 3.9979 5.41 7.4406-.6037 1.5873-2.1721 2.0283-3.8146 1.0712.8866 3.0061 2.0387 5.7521 3.4131 8.1861 2.106.292 4.4708.54 7.0606.737-2.0791-2.56-.4123-4.657 2.3607-4.514 2.3823.122 5.5313 2.102 4.8576 4.805 2.1478-.969 5.7832-.174 6.209 2.634-2.61-.02-6.554-.048-11.6042-.397-3.114-.215-6.1888-.804-9.3001-1.045z" fill="#fff"/><path d="m58.9911 110.068c-4.5841-.827-6.5662-1.471-7.8557-2.552-.9284-1.05-2.1586-2.459-3.025-3.561.159.199.2614.331.6899.828-.4204-.524-2.5157-3.201-2.668-4.38 1.14-.184 4.8091 5.54 4.8455 5.598 1.1129.415 2.5628.806 4.3118 1.159-1.7014-2.585-3.0729-5.373-4.0828-8.2988-2.4995 1.2638-5.6889-5.3413-4.6783-8.1278.2048-.5686.8691-1.7517 2.5615-.4716-1.2761-2.9402-.9405-7.2965 2.1384-7.2897.0701 9.7393 1.4162 18.0749 7.7627 27.0959z" fill="#c23c40"/><path d="m99.7728 114.954c-2.7259 1.402-3.2919 1.694-6.2104 2.79-.8611.281-2.0077.64-2.8769.887 5.6162-1.515 10.6035-4.724 14.5455-9.192-.839 1.859-1.413 2.921-4.351 4.872-.365.222-.733.435-1.1072.643z" fill="#000"/><path d="m100.882 114.312c2.416-1.67 3.437-2.658 4.351-4.873 5.774-6.542 9.303-15.7803 9.288-26.3268-.002-.4421-.01-.8841-.025-1.3259 1.825-.4797 3.292-1.0065 4.327-1.5711.014.4406.022.8826.022 1.3259.021 14.1509-7.15 26.2399-17.963 32.7709z" fill="#f6d33c"/><path d="m88.821 103.936c-2.6707-2.679-2.6707-2.679-9.0953-8.7641-.0154-2.9738-.0248-5.9477-.0283-8.9215l-.0014-1.3286c3.4819.0027 6.9138-.0673 10.2164-.2048l.0081 1.3286c.0054 6.7292-.3894 12.8048-1.0995 17.8904z" fill="#000"/><path d="m81.9488 119.962-.2547.01c-.5538.017-.8071.024-1.0375.024l-.4204.001c-.2332-.008-.4353-9.928-.5121-24.8238 6.0083 5.6858 6.6376 6.2808 9.0953 8.7638-1.3596 9.77-3.8753 15.897-6.8706 16.025z" fill="#f6d33c"/><path d="m83.8486 119.84c-.318.025-.7424.058-1.0631.079-.2506.016-.5875.031-.8368.045 2.99-.13 5.5057-6.246 6.8693-16.003 2.8997 3.05 4.1798 4.537 5.5825 6.821-2.7326 5.39-6.4044 8.686-10.5519 9.058z" fill="#000"/><path d="m94.3991 110.781c-1.3811-2.171-2.2206-3.322-5.5824-6.821.7101-5.0907 1.1076-11.1731 1.0995-17.9144l-.0081-1.3286c3.3053-.1374 6.4839-.3409 9.4604-.605.0054.442.0108.8839.0108 1.3273.0175 10.347-1.8716 19.2027-4.9802 25.3417z" fill="#f6d33c"/><path d="m95.2076 115.704c.5053-1.588.4608-2.526-.7977-4.949 3.1032-6.137 4.9869-14.9835 4.9708-25.3171 0-.4433-.0054-.8853-.0108-1.3272 1.1161-.0998 2.2031-.2062 3.2581-.3221 1.477 1.7409 3.316 3.9063 4.918 6.1969-1.12 11.4805-5.764 20.7315-12.3384 25.7185z" fill="#000"/><path d="m86.4225 119.526c-.2978.044-.6953.102-.9944.14-.9419.112-.9419.112-1.427.159l-.1522.013c4.1528-.37 7.83-3.677 10.5613-9.083 1.0847 2.164 1.4337 3.152.7977 4.949-2.6505 2.012-5.6135 3.33-8.7854 3.822z" fill="#f6d33c"/><path d="m90.6855 118.631-.9715.247c-1.6129.362-1.6129.362-2.4847.516l-.7842.129c7.834-1.222 14.3959-7.458 18.1169-16.712 1.026 2.74 1.35 4.023.662 6.634-3.939 4.463-8.925 7.673-14.5385 9.186z" fill="#f6d33c"/><path d="m89.7154 118.878c-1.6129.362-1.6128.362-2.4846.516l-.7843.129c3.1558-.493 6.1053-1.797 8.7423-3.786-.919 1.371-1.5469 1.976-4.5059 2.894zm15.5106-9.433c.55-2.296.529-3.577-.663-6.634 2.118-5.269 3.316-11.5144 3.305-18.3716 0-.4446-.005-.8866-.019-1.3285 2.538-.3895 4.78-.8341 6.646-1.3246.016.4406.022.8839.024 1.3259.016 10.5492-3.517 19.7898-9.293 26.3328z" fill="#000"/><path d="m104.516 102.807c-1.419-2.8881-2.38-4.4255-5.6244-8.4126.3234-2.8256.4945-5.8223.4891-8.9552 0-.4433-.0054-.8852-.0108-1.3272 3.0451-.2708 5.8791-.6036 8.4221-.9917.01.4419.016.8839.018 1.3272.011 6.8532-1.184 13.0945-3.294 18.3595z" fill="#f6d33c"/><path d="m98.8891 94.4267c-2.3244-2.6652-3.4872-4.0019-8.9794-9.711 3.1058-.1536 5.5609-.2776 9.4604-.6239.0054.4487.0108.8974.0108 1.3474.01 3.0029-.1542 6.0037-.4918 8.9875z" fill="#000"/><path d="m56.1248 52.9495c1.4013-3.1422 2.4294-4.712 5.4059-7.26 5.5421-3.3269 11.9048-5.3561 18.6743-5.6472-9.3189.8422-17.7877 5.6822-24.0802 12.9072z" fill="#f6d33c"/><path d="m45.0354 81.6125c-1.6304-.477-2.8916-.985-3.7378-1.5159.4433-14.4986 8.5011-27.364 20.2347-34.4085-2.7744 2.4632-4.0087 3.9305-5.406 7.2601-6.5877 7.5619-10.789 17.7338-11.0909 28.6643z" fill="#000"/><path d="m79.6931 84.9218c-3.4071-.0028-6.8137-.0774-10.2177-.2237-.1024-.004-.2061-.008-.3085-.0148.0538-7.1522.6333-14.128 1.6021-20.3734 2.9078 3.6489 4.4331 5.4181 8.9322 10.1153-.0081 3.4117-.0108 6.934-.0081 10.4966zm-8.9187-20.6389c-2.7232-3.7876-3.8901-5.7536-5.0139-9.2529 3.7378-7.8853 8.8285-13.4812 14.446-14.989-4.0006 2.2556-7.4945 11.7942-9.4321 24.2419z" fill="#f6d33c"/><path d="m69.167 84.6833c-3.2512-.1401-6.4983-.3634-9.738-.6697.167-10.7526 2.5615-21.031 6.3316-28.9836 1.1494 3.3551 2.0805 5.2564 5.0139 9.2516-.9729 6.2521-1.5536 13.2387-1.6075 20.4017z" fill="#000"/><path d="m59.4289 84.0136c-1.1184-.1078-2.1936-.2223-3.2285-.3449-1.3434-2.0576-3.0142-4.6177-4.3967-7.5888 1.718-11.6959 7.0337-22.1535 14.2574-28.8072-.9621 2.6572-1.1548 4.2324-.3153 7.7896-3.7608 7.9446-6.1498 18.2122-6.3169 28.9513z" fill="#f6d33c"/><path d="m65.7459 55.061c-.7236-3.2716-.7842-4.9411.3153-7.7896 4.1825-3.851 9.0064-6.4287 14.1456-7.2304-5.623 1.5091-10.7217 7.1185-14.4609 15.02z" fill="#000"/><path d="m55.5565 62.5124c-.5875-3.8928-.5875-5.9234.5741-9.5696 6.2925-7.221 14.7586-12.0583 24.0762-12.9018-2.2206.3719-2.6208.4406-4.2782 1.0927-8.594 3.0628-15.9565 11.0626-20.3721 21.3787z" fill="#000"/><path d="m66.088 47.2188c1.3501-2.3392 2.2367-3.4683 5.6269-5.2496 2.7333-1.0138 5.5886-1.6621 8.4916-1.9282-5.1257.799-9.9401 3.3551-14.1185 7.1778zm-14.9217 35.7357c-2.4025-.4028-4.4601-.8542-6.1309-1.342.3018-10.9346 4.5059-21.1092 11.0949-28.6697-1.0241 3.3888-1.2639 5.344-.574 9.5696-2.6397 6.1713-4.227 13.1727-4.39 20.4421z" fill="#f6d33c"/><path d="m61.5688 45.6666c2.9415-2.1196 4.5935-3.1207 9.1762-4.5221 3.1002-.7352 6.2756-1.1055 9.4618-1.1035-6.7534.2897-13.1026 2.3108-18.638 5.6256z" fill="#000"/><path d="m41.2963 80.0966c-.8409-.5282-1.2747-1.078-1.2572-1.6371l.0687-1.3933c1.1561-17.5182 13.8329-31.9265 30.6356-35.9217-3.7917 1.2033-5.9045 2.0966-9.1761 4.5221-11.7525 7.039-19.825 19.9166-20.271 34.43z" fill="#f6d33c"/><path d="m59.4294 84.0137c-2.7466-.2552-5.4835-.6048-8.206-1.0484.163-7.2668 1.7436-14.2614 4.3765-20.4314 1.0173 4.0491 1.8379 6.2091 4.6986 11.0114-.5233 3.4661-.8137 6.9634-.8691 10.4684z" fill="#000"/><path d="m59.429 84.0325c.0538-3.5231.3459-7.0386.8745-10.5222 2.459 3.6596 3.9709 5.8209 8.8635 11.173-3.3525-.1671-5.7765-.2897-9.738-.6508z" fill="#f6d33c"/><path d="m71.7153 41.9692c2.2355-.9028 4.165-1.683 8.4917-1.9282-2.903.2669-5.7581.9152-8.4917 1.9282zm47.3667 38.1032c1.027-.597 1.505-1.1966 1.485-1.7841.553 16.7529-8.882 29.7487-20.043 36.2347l-.039.024.42-.252c10.83-6.524 18.017-18.6232 17.994-32.7903 0-.4433-.008-.8853-.024-1.3259.071-.0377.137-.0755.202-.1132.016.4406.021.8826.021 1.3259z" fill="#000"/><path d="m99.2701 54.2336.031-.0053.0189-.0027c.3894-.0647.756-.1267 1.108-.19 2.294-.4231 7.289-1.5186 7.289-3.0345 0 0 2.226 2.0347 3.722 4.8091.179.3018.331.6157.447.9337.12.282.209.5755.268.8759.011.0189.025.035.034.0525.008.128.008.2412.003.3463l-.008.128c-.086.8611-.616.8786-1.19.6239-.061-.0229-.121-.0445-.187-.0754-2.058-.9271-2.732-2.8149-3.132-3.5937-1.044.3328-2.777 1.0834-4.216 1.3623-.166.0323-.474.1064-.645.1388 1.789 2.9661 3.286 6.0987 4.47 9.354 2.019-2.0738 5.177 1.7732 5.33 5.4895.089 2.1828-.892 4.1259-2.885 3.4265 1.595 2.9563 1.084 7.2924-1.947 8.2424-.503-9.7219-2.151-18.3509-8.554-28.8624h-.0027zm.3638-7.4554c-.0096-.006-.019-.0123-.0283-.0189l.0243.0014c-.0081-.0297-.0189-.0606-.0243-.0876l.0971-.128.132-.0148-.0081-.0108s.2894-1.2235 4.8924 1.9565c-7.8244-6.1053-15.7582-7.8408-20.4622-8.3016.4999.1468.8732.2937 1.1575.4325.2452.1213.4204.2371.5417.3436l.0215-.0041c.5713.0634 1.0874.1631 1.5496.2776v.0014c.1657.0566.3342.1185.5053.1819l.0633.0242c.1469.0553.2924.1146.442.1738l.1105.0445c.1374.0566.2735.1145.4109.1752l.1294.0552c.1738.0782.3503.1577.5269.2426v.0067c1.4134.6899 2.5574 1.466 2.5628 2.0603-.2102.128-.2735.167-.8974 0 2.3715 1.6897 5.7684 4.8737 7.7761 7.2182 1.3811-.2614 3.4401-.5578 4.3901-.8758-.071.0674-3.499-2.513-3.9131-3.754z" fill="#c23c40"/><path d="m107.697 51.0294c-.954-.8957-1.948-1.7482-2.979-2.5548-1.864-1.2868-3.018-1.8527-3.736-2.0696l.01-.0095s-2.2971-.7384-.9968 1.0174l.0058-.0054c.994 1.3205 3.487 3.18 3.547 3.1207-.95.318-3.007.6144-4.3896.8758-2.0077-2.3446-5.4059-5.5286-7.7761-7.2183.6239.1671.6872.128.8974 0-.0054-.5942-1.1507-1.3703-2.5629-2.0602v-.0068c-.1745-.0831-.3502-.1639-.5268-.2425l-.1294-.0553c-.1374-.0592-.2735-.1199-.4109-.1751l-.1105-.0445c-.1496-.0593-.2978-.1186-.442-.1738l-.0633-.0243c-.1677-.0627-.3361-.1234-.5053-.1819-.51-.1259-1.0276-.2199-1.5496-.2789l-.0215.004c.0336.0283.0579.0553.0835.0809l-.1523-.0741c.0283-.0014.0553-.0054.0688-.0068-.165-.1373-.3471-.2528-.5417-.3436-.3728-.1768-.7601-.3215-1.1575-.4325-.9328-.0931-1.8693-.1444-2.8067-.1536-.5363-.0216-.9702-.0256-1.0618.0081-.0081.0027-.0108.0067-.0108.0108-.1657.0054-.2573.0121-.2573.0121l.1778.0566c-.1019-.0162-.2038-.0319-.3058-.0472.2519.0418.5012.0876.7505.1388.6252.2075 1.9241.5538 2.9091.8085 6.0164 2.1195 11.4345 6.8612 15.6197 13.2266l.19-.0297c3.724-.6266 5.79-1.3151 7.267-1.9983.004-.0012.009-.003.013-.0053 1.063-.5875.945-1.1656.945-1.1656z" fill="#fff"/><path d="m99.2285 54.2498c-6.5324-9.6275-12.538-12.503-18.0019-13.9151.1414.0404.2829.0849.4244.1307l-.7438-.1967-.1805-.0593c.1657.0404.3341.0822.4999.1253-.1925-.0551-.3861-.1058-.5808-.1523l-.159-.0566c.0162.0095.0337.0203.0566.031-.1267-.0283-.2533-.0566-.3854-.0835 1.1696 1.2909 2.8068 1.8379 3.2016 1.9565-.1105.4837-.0283 1.4525 1.66 2.6733.2628.1914.5161.3396.7573.4609 2.606 1.3595 3.1786.3018 3.3026-.124.0162-.0121.031-.0216.0445-.035.795.5875 2.3418 1.8325 4.0531 3.7688.9836 1.183 1.9161 2.2152 2.6127 3.2473-1.9462.2311-3.8979.4126-5.8533.5444-.1213-2.5548-1.9633-3.8308-3.1234-4.2633-2.5373-.9432-3.3713 2.0454-2.2745 4.1461-2.0077-1.0874-4.3846-.1186-4.7188 3.0546 7.9392-.0444 13.3802-.3961 19.4087-1.2531z" fill="#c23c40"/></g></svg>